<svg viewBox="0 0 500 500" xmlns="http://www.w3.org/2000/svg">
  <defs>
    <linearGradient id="bg18" x1="0" y1="0" x2="1" y2="1">
      <stop offset="0" stop-color="#FBF6EF"/>
      <stop offset="1" stop-color="#F3EAD9"/>
    </linearGradient>
  </defs>
  <rect width="500" height="500" fill="url(#bg18)"/>
  <rect x="14" y="14" width="472" height="472" fill="none" stroke="#C9A24B" stroke-width="1.5"/>
  <rect x="22" y="22" width="456" height="456" fill="none" stroke="#6E1E3A" stroke-width="0.75" opacity="0.5"/>
  
    <g transform="translate(124,96) scale(0.9)" opacity="0.55" stroke="#C9A24B" fill="none" stroke-width="2.2">
        <path d="M0,0 C 20,-30 60,-30 70,0 C 80,25 60,45 35,40 C 15,36 10,15 0,0 Z"/>
        <path d="M0,0 C -25,15 -35,45 -15,60 C 0,70 20,60 18,40"/>
        <circle cx="70" cy="2" r="4" fill="#C9A24B" stroke="none"/>
        <path d="M40,10 q10,-14 24,-6" />
        <path d="M25,25 q8,-10 20,-4" />
    </g>
  
    <g transform="translate(342,400) scale(-0.9)" opacity="0.35" stroke="#6E1E3A" fill="none" stroke-width="2.2">
        <path d="M0,0 C 20,-30 60,-30 70,0 C 80,25 60,45 35,40 C 15,36 10,15 0,0 Z"/>
        <path d="M0,0 C -25,15 -35,45 -15,60 C 0,70 20,60 18,40"/>
        <circle cx="70" cy="2" r="4" fill="#6E1E3A" stroke="none"/>
        <path d="M40,10 q10,-14 24,-6" />
        <path d="M25,25 q8,-10 20,-4" />
    </g>
  <circle cx="250" cy="230" r="70" fill="none" stroke="#6E1E3A" stroke-width="1.2" opacity="0.5"/>
  <circle cx="250" cy="230" r="46" fill="none" stroke="#C9A24B" stroke-width="1.2" opacity="0.7"/>
  <text x="250" y="238" text-anchor="middle" font-family="Georgia, 'Times New Roman', serif" font-size="30" fill="#6E1E3A" opacity="0.85">A</text>
  <text x="250" y="345" text-anchor="middle" font-family="Georgia, serif" font-size="22" letter-spacing="1" fill="#3A2E28">WORKS</text>
  <text x="250" y="372" text-anchor="middle" font-family="Georgia, serif" font-size="12" letter-spacing="3" fill="#6E1E3A">SAMPLE 03 — CUSTOM STITCHING</text>
</svg>